<?xml version="1.0" encoding="UTF-8" standalone="no"?>
<!DOCTYPE svg PUBLIC "-//W3C//DTD SVG 1.1//EN"
 "http://www.w3.org/Graphics/SVG/1.1/DTD/svg11.dtd">
<!-- Generated by graphviz version 2.42.3 (0)
 -->
<!-- Title: dependency&#45;cruiser output Pages: 1 -->
<svg width="173pt" height="1284pt"
 viewBox="0.00 0.00 173.00 1284.00" xmlns="http://www.w3.org/2000/svg" xmlns:xlink="http://www.w3.org/1999/xlink">
<g id="graph0" class="graph" transform="scale(1 1) rotate(0) translate(4 1280)">
<title>dependency&#45;cruiser output</title>
<polygon fill="white" stroke="transparent" points="-4,4 -4,-1280 169,-1280 169,4 -4,4"/>
<g id="clust1" class="cluster">
<title>cluster_extension</title>
<path fill="#ffffff" stroke="black" stroke-width="2" d="M20,-8C20,-8 145,-8 145,-8 151,-8 157,-14 157,-20 157,-20 157,-1256 157,-1256 157,-1262 151,-1268 145,-1268 145,-1268 20,-1268 20,-1268 14,-1268 8,-1262 8,-1256 8,-1256 8,-20 8,-20 8,-14 14,-8 20,-8"/>
<text text-anchor="middle" x="82.5" y="-1256.8" font-family="Helvetica,sans-Serif" font-weight="bold" font-size="9.00">extension</text>
</g>
<g id="clust2" class="cluster">
<title>cluster_extension/intents</title>
<path fill="#ffffff" stroke="black" stroke-width="2" d="M28,-16C28,-16 137,-16 137,-16 143,-16 149,-22 149,-28 149,-28 149,-1230 149,-1230 149,-1236 143,-1242 137,-1242 137,-1242 28,-1242 28,-1242 22,-1242 16,-1236 16,-1230 16,-1230 16,-28 16,-28 16,-22 22,-16 28,-16"/>
<text text-anchor="middle" x="82.5" y="-1230.8" font-family="Helvetica,sans-Serif" font-weight="bold" font-size="9.00">intents</text>
</g>
<g id="clust3" class="cluster">
<title>cluster_extension/intents/aboutPage</title>
<path fill="#ffffff" stroke="black" stroke-width="2" d="M51,-1164C51,-1164 114,-1164 114,-1164 120,-1164 126,-1170 126,-1176 126,-1176 126,-1204 126,-1204 126,-1210 120,-1216 114,-1216 114,-1216 51,-1216 51,-1216 45,-1216 39,-1210 39,-1204 39,-1204 39,-1176 39,-1176 39,-1170 45,-1164 51,-1164"/>
<text text-anchor="middle" x="82.5" y="-1204.8" font-family="Helvetica,sans-Serif" font-weight="bold" font-size="9.00">aboutPage</text>
</g>
<g id="clust4" class="cluster">
<title>cluster_extension/intents/bookmarks</title>
<path fill="#ffffff" stroke="black" stroke-width="2" d="M51,-1104C51,-1104 114,-1104 114,-1104 120,-1104 126,-1110 126,-1116 126,-1116 126,-1144 126,-1144 126,-1150 120,-1156 114,-1156 114,-1156 51,-1156 51,-1156 45,-1156 39,-1150 39,-1144 39,-1144 39,-1116 39,-1116 39,-1110 45,-1104 51,-1104"/>
<text text-anchor="middle" x="82.5" y="-1144.8" font-family="Helvetica,sans-Serif" font-weight="bold" font-size="9.00">bookmarks</text>
</g>
<g id="clust5" class="cluster">
<title>cluster_extension/intents/clipboard</title>
<path fill="#ffffff" stroke="black" stroke-width="2" d="M47,-1014C47,-1014 118,-1014 118,-1014 124,-1014 130,-1020 130,-1026 130,-1026 130,-1084 130,-1084 130,-1090 124,-1096 118,-1096 118,-1096 47,-1096 47,-1096 41,-1096 35,-1090 35,-1084 35,-1084 35,-1026 35,-1026 35,-1020 41,-1014 47,-1014"/>
<text text-anchor="middle" x="82.5" y="-1084.8" font-family="Helvetica,sans-Serif" font-weight="bold" font-size="9.00">clipboard</text>
</g>
<g id="clust6" class="cluster">
<title>cluster_extension/intents/find</title>
<path fill="#ffffff" stroke="black" stroke-width="2" d="M59.5,-954C59.5,-954 105.5,-954 105.5,-954 111.5,-954 117.5,-960 117.5,-966 117.5,-966 117.5,-994 117.5,-994 117.5,-1000 111.5,-1006 105.5,-1006 105.5,-1006 59.5,-1006 59.5,-1006 53.5,-1006 47.5,-1000 47.5,-994 47.5,-994 47.5,-966 47.5,-966 47.5,-960 53.5,-954 59.5,-954"/>
<text text-anchor="middle" x="82.5" y="-994.8" font-family="Helvetica,sans-Serif" font-weight="bold" font-size="9.00">find</text>
</g>
<g id="clust7" class="cluster">
<title>cluster_extension/intents/music</title>
<path fill="#ffffff" stroke="black" stroke-width="2" d="M59.5,-894C59.5,-894 105.5,-894 105.5,-894 111.5,-894 117.5,-900 117.5,-906 117.5,-906 117.5,-934 117.5,-934 117.5,-940 111.5,-946 105.5,-946 105.5,-946 59.5,-946 59.5,-946 53.5,-946 47.5,-940 47.5,-934 47.5,-934 47.5,-906 47.5,-906 47.5,-900 53.5,-894 59.5,-894"/>
<text text-anchor="middle" x="82.5" y="-934.8" font-family="Helvetica,sans-Serif" font-weight="bold" font-size="9.00">music</text>
</g>
<g id="clust8" class="cluster">
<title>cluster_extension/intents/muting</title>
<path fill="#ffffff" stroke="black" stroke-width="2" d="M59.5,-834C59.5,-834 105.5,-834 105.5,-834 111.5,-834 117.5,-840 117.5,-846 117.5,-846 117.5,-874 117.5,-874 117.5,-880 111.5,-886 105.5,-886 105.5,-886 59.5,-886 59.5,-886 53.5,-886 47.5,-880 47.5,-874 47.5,-874 47.5,-846 47.5,-846 47.5,-840 53.5,-834 59.5,-834"/>
<text text-anchor="middle" x="82.5" y="-874.8" font-family="Helvetica,sans-Serif" font-weight="bold" font-size="9.00">muting</text>
</g>
<g id="clust9" class="cluster">
<title>cluster_extension/intents/navigation</title>
<path fill="#ffffff" stroke="black" stroke-width="2" d="M52.5,-774C52.5,-774 112.5,-774 112.5,-774 118.5,-774 124.5,-780 124.5,-786 124.5,-786 124.5,-814 124.5,-814 124.5,-820 118.5,-826 112.5,-826 112.5,-826 52.5,-826 52.5,-826 46.5,-826 40.5,-820 40.5,-814 40.5,-814 40.5,-786 40.5,-786 40.5,-780 46.5,-774 52.5,-774"/>
<text text-anchor="middle" x="82.5" y="-814.8" font-family="Helvetica,sans-Serif" font-weight="bold" font-size="9.00">navigation</text>
</g>
<g id="clust10" class="cluster">
<title>cluster_extension/intents/nicknames</title>
<path fill="#ffffff" stroke="black" stroke-width="2" d="M51.5,-714C51.5,-714 113.5,-714 113.5,-714 119.5,-714 125.5,-720 125.5,-726 125.5,-726 125.5,-754 125.5,-754 125.5,-760 119.5,-766 113.5,-766 113.5,-766 51.5,-766 51.5,-766 45.5,-766 39.5,-760 39.5,-754 39.5,-754 39.5,-726 39.5,-726 39.5,-720 45.5,-714 51.5,-714"/>
<text text-anchor="middle" x="82.5" y="-754.8" font-family="Helvetica,sans-Serif" font-weight="bold" font-size="9.00">nicknames</text>
</g>
<g id="clust11" class="cluster">
<title>cluster_extension/intents/notes</title>
<path fill="#ffffff" stroke="black" stroke-width="2" d="M47,-624C47,-624 118,-624 118,-624 124,-624 130,-630 130,-636 130,-636 130,-694 130,-694 130,-700 124,-706 118,-706 118,-706 47,-706 47,-706 41,-706 35,-700 35,-694 35,-694 35,-636 35,-636 35,-630 41,-624 47,-624"/>
<text text-anchor="middle" x="82.5" y="-694.8" font-family="Helvetica,sans-Serif" font-weight="bold" font-size="9.00">notes</text>
</g>
<g id="clust12" class="cluster">
<title>cluster_extension/intents/print</title>
<path fill="#ffffff" stroke="black" stroke-width="2" d="M59.5,-564C59.5,-564 105.5,-564 105.5,-564 111.5,-564 117.5,-570 117.5,-576 117.5,-576 117.5,-604 117.5,-604 117.5,-610 111.5,-616 105.5,-616 105.5,-616 59.5,-616 59.5,-616 53.5,-616 47.5,-610 47.5,-604 47.5,-604 47.5,-576 47.5,-576 47.5,-570 53.5,-564 59.5,-564"/>
<text text-anchor="middle" x="82.5" y="-604.8" font-family="Helvetica,sans-Serif" font-weight="bold" font-size="9.00">print</text>
</g>
<g id="clust13" class="cluster">
<title>cluster_extension/intents/read</title>
<path fill="#ffffff" stroke="black" stroke-width="2" d="M46,-474C46,-474 119,-474 119,-474 125,-474 131,-480 131,-486 131,-486 131,-544 131,-544 131,-550 125,-556 119,-556 119,-556 46,-556 46,-556 40,-556 34,-550 34,-544 34,-544 34,-486 34,-486 34,-480 40,-474 46,-474"/>
<text text-anchor="middle" x="82.5" y="-544.8" font-family="Helvetica,sans-Serif" font-weight="bold" font-size="9.00">read</text>
</g>
<g id="clust14" class="cluster">
<title>cluster_extension/intents/saving</title>
<path fill="#ffffff" stroke="black" stroke-width="2" d="M36,-384C36,-384 129,-384 129,-384 135,-384 141,-390 141,-396 141,-396 141,-454 141,-454 141,-460 135,-466 129,-466 129,-466 36,-466 36,-466 30,-466 24,-460 24,-454 24,-454 24,-396 24,-396 24,-390 30,-384 36,-384"/>
<text text-anchor="middle" x="82.5" y="-454.8" font-family="Helvetica,sans-Serif" font-weight="bold" font-size="9.00">saving</text>
</g>
<g id="clust15" class="cluster">
<title>cluster_extension/intents/scroll</title>
<path fill="#ffffff" stroke="black" stroke-width="2" d="M49.5,-294C49.5,-294 115.5,-294 115.5,-294 121.5,-294 127.5,-300 127.5,-306 127.5,-306 127.5,-364 127.5,-364 127.5,-370 121.5,-376 115.5,-376 115.5,-376 49.5,-376 49.5,-376 43.5,-376 37.5,-370 37.5,-364 37.5,-364 37.5,-306 37.5,-306 37.5,-300 43.5,-294 49.5,-294"/>
<text text-anchor="middle" x="82.5" y="-364.8" font-family="Helvetica,sans-Serif" font-weight="bold" font-size="9.00">scroll</text>
</g>
<g id="clust16" class="cluster">
<title>cluster_extension/intents/search</title>
<path fill="#ffffff" stroke="black" stroke-width="2" d="M50.5,-204C50.5,-204 114.5,-204 114.5,-204 120.5,-204 126.5,-210 126.5,-216 126.5,-216 126.5,-274 126.5,-274 126.5,-280 120.5,-286 114.5,-286 114.5,-286 50.5,-286 50.5,-286 44.5,-286 38.5,-280 38.5,-274 38.5,-274 38.5,-216 38.5,-216 38.5,-210 44.5,-204 50.5,-204"/>
<text text-anchor="middle" x="82.5" y="-274.8" font-family="Helvetica,sans-Serif" font-weight="bold" font-size="9.00">search</text>
</g>
<g id="clust17" class="cluster">
<title>cluster_extension/intents/self</title>
<path fill="#ffffff" stroke="black" stroke-width="2" d="M59.5,-144C59.5,-144 105.5,-144 105.5,-144 111.5,-144 117.5,-150 117.5,-156 117.5,-156 117.5,-184 117.5,-184 117.5,-190 111.5,-196 105.5,-196 105.5,-196 59.5,-196 59.5,-196 53.5,-196 47.5,-190 47.5,-184 47.5,-184 47.5,-156 47.5,-156 47.5,-150 53.5,-144 59.5,-144"/>
<text text-anchor="middle" x="82.5" y="-184.8" font-family="Helvetica,sans-Serif" font-weight="bold" font-size="9.00">self</text>
</g>
<g id="clust18" class="cluster">
<title>cluster_extension/intents/speech</title>
<path fill="#ffffff" stroke="black" stroke-width="2" d="M58.5,-84C58.5,-84 106.5,-84 106.5,-84 112.5,-84 118.5,-90 118.5,-96 118.5,-96 118.5,-124 118.5,-124 118.5,-130 112.5,-136 106.5,-136 106.5,-136 58.5,-136 58.5,-136 52.5,-136 46.5,-130 46.5,-124 46.5,-124 46.5,-96 46.5,-96 46.5,-90 52.5,-84 58.5,-84"/>
<text text-anchor="middle" x="82.5" y="-124.8" font-family="Helvetica,sans-Serif" font-weight="bold" font-size="9.00">speech</text>
</g>
<g id="clust19" class="cluster">
<title>cluster_extension/intents/tabs</title>
<path fill="#ffffff" stroke="black" stroke-width="2" d="M59.5,-24C59.5,-24 105.5,-24 105.5,-24 111.5,-24 117.5,-30 117.5,-36 117.5,-36 117.5,-64 117.5,-64 117.5,-70 111.5,-76 105.5,-76 105.5,-76 59.5,-76 59.5,-76 53.5,-76 47.5,-70 47.5,-64 47.5,-64 47.5,-36 47.5,-36 47.5,-30 53.5,-24 59.5,-24"/>
<text text-anchor="middle" x="82.5" y="-64.8" font-family="Helvetica,sans-Serif" font-weight="bold" font-size="9.00">tabs</text>
</g>
<!-- extension/intents/aboutPage/aboutPage.js -->
<g id="node1" class="node">
<title>extension/intents/aboutPage/aboutPage.js</title>
<g id="a_node1"><a xlink:href="extension/intents/aboutPage/aboutPage.js" xlink:title="aboutPage.js">
<path fill="#ccffcc" stroke="black" d="M112,-1190C112,-1190 53,-1190 53,-1190 50,-1190 47,-1187 47,-1184 47,-1184 47,-1178 47,-1178 47,-1175 50,-1172 53,-1172 53,-1172 112,-1172 112,-1172 115,-1172 118,-1175 118,-1178 118,-1178 118,-1184 118,-1184 118,-1187 115,-1190 112,-1190"/>
<text text-anchor="middle" x="82.5" y="-1178.8" font-family="Helvetica,sans-Serif" font-size="9.00">aboutPage.js</text>
</a>
</g>
</g>
<!-- extension/intents/bookmarks/bookmarks.js -->
<g id="node2" class="node">
<title>extension/intents/bookmarks/bookmarks.js</title>
<g id="a_node2"><a xlink:href="extension/intents/bookmarks/bookmarks.js" xlink:title="bookmarks.js">
<path fill="#ccffcc" stroke="black" d="M112,-1130C112,-1130 53,-1130 53,-1130 50,-1130 47,-1127 47,-1124 47,-1124 47,-1118 47,-1118 47,-1115 50,-1112 53,-1112 53,-1112 112,-1112 112,-1112 115,-1112 118,-1115 118,-1118 118,-1118 118,-1124 118,-1124 118,-1127 115,-1130 112,-1130"/>
<text text-anchor="middle" x="82.5" y="-1118.8" font-family="Helvetica,sans-Serif" font-size="9.00">bookmarks.js</text>
</a>
</g>
</g>
<!-- extension/intents/clipboard/clipboard.js -->
<g id="node3" class="node">
<title>extension/intents/clipboard/clipboard.js</title>
<g id="a_node3"><a xlink:href="extension/intents/clipboard/clipboard.js" xlink:title="clipboard.js">
<path fill="#ccffcc" stroke="black" d="M108.5,-1070C108.5,-1070 56.5,-1070 56.5,-1070 53.5,-1070 50.5,-1067 50.5,-1064 50.5,-1064 50.5,-1058 50.5,-1058 50.5,-1055 53.5,-1052 56.5,-1052 56.5,-1052 108.5,-1052 108.5,-1052 111.5,-1052 114.5,-1055 114.5,-1058 114.5,-1058 114.5,-1064 114.5,-1064 114.5,-1067 111.5,-1070 108.5,-1070"/>
<text text-anchor="middle" x="82.5" y="-1058.8" font-family="Helvetica,sans-Serif" font-size="9.00">clipboard.js</text>
</a>
</g>
</g>
<!-- extension/intents/clipboard/contentScript.js -->
<g id="node4" class="node">
<title>extension/intents/clipboard/contentScript.js</title>
<g id="a_node4"><a xlink:href="extension/intents/clipboard/contentScript.js" xlink:title="contentScript.js">
<path fill="#ccffcc" stroke="black" d="M116,-1040C116,-1040 49,-1040 49,-1040 46,-1040 43,-1037 43,-1034 43,-1034 43,-1028 43,-1028 43,-1025 46,-1022 49,-1022 49,-1022 116,-1022 116,-1022 119,-1022 122,-1025 122,-1028 122,-1028 122,-1034 122,-1034 122,-1037 119,-1040 116,-1040"/>
<text text-anchor="middle" x="82.5" y="-1028.8" font-family="Helvetica,sans-Serif" font-size="9.00">contentScript.js</text>
</a>
</g>
</g>
<!-- extension/intents/find/find.js -->
<g id="node5" class="node">
<title>extension/intents/find/find.js</title>
<g id="a_node5"><a xlink:href="extension/intents/find/find.js" xlink:title="find.js">
<path fill="#ccffcc" stroke="black" d="M103.5,-980C103.5,-980 61.5,-980 61.5,-980 58.5,-980 55.5,-977 55.5,-974 55.5,-974 55.5,-968 55.5,-968 55.5,-965 58.5,-962 61.5,-962 61.5,-962 103.5,-962 103.5,-962 106.5,-962 109.5,-965 109.5,-968 109.5,-968 109.5,-974 109.5,-974 109.5,-977 106.5,-980 103.5,-980"/>
<text text-anchor="middle" x="82.5" y="-968.8" font-family="Helvetica,sans-Serif" font-size="9.00">find.js</text>
</a>
</g>
</g>
<!-- extension/intents/music/music.js -->
<g id="node6" class="node">
<title>extension/intents/music/music.js</title>
<g id="a_node6"><a xlink:href="extension/intents/music/music.js" xlink:title="music.js">
<path fill="#ccffcc" stroke="black" d="M103.5,-920C103.5,-920 61.5,-920 61.5,-920 58.5,-920 55.5,-917 55.5,-914 55.5,-914 55.5,-908 55.5,-908 55.5,-905 58.5,-902 61.5,-902 61.5,-902 103.5,-902 103.5,-902 106.5,-902 109.5,-905 109.5,-908 109.5,-908 109.5,-914 109.5,-914 109.5,-917 106.5,-920 103.5,-920"/>
<text text-anchor="middle" x="82.5" y="-908.8" font-family="Helvetica,sans-Serif" font-size="9.00">music.js</text>
</a>
</g>
</g>
<!-- extension/intents/muting/muting.js -->
<g id="node7" class="node">
<title>extension/intents/muting/muting.js</title>
<g id="a_node7"><a xlink:href="extension/intents/muting/muting.js" xlink:title="muting.js">
<path fill="#ccffcc" stroke="black" d="M103.5,-860C103.5,-860 61.5,-860 61.5,-860 58.5,-860 55.5,-857 55.5,-854 55.5,-854 55.5,-848 55.5,-848 55.5,-845 58.5,-842 61.5,-842 61.5,-842 103.5,-842 103.5,-842 106.5,-842 109.5,-845 109.5,-848 109.5,-848 109.5,-854 109.5,-854 109.5,-857 106.5,-860 103.5,-860"/>
<text text-anchor="middle" x="82.5" y="-848.8" font-family="Helvetica,sans-Serif" font-size="9.00">muting.js</text>
</a>
</g>
</g>
<!-- extension/intents/navigation/navigation.js -->
<g id="node8" class="node">
<title>extension/intents/navigation/navigation.js</title>
<g id="a_node8"><a xlink:href="extension/intents/navigation/navigation.js" xlink:title="navigation.js">
<path fill="#ccffcc" stroke="black" d="M110.5,-800C110.5,-800 54.5,-800 54.5,-800 51.5,-800 48.5,-797 48.5,-794 48.5,-794 48.5,-788 48.5,-788 48.5,-785 51.5,-782 54.5,-782 54.5,-782 110.5,-782 110.5,-782 113.5,-782 116.5,-785 116.5,-788 116.5,-788 116.5,-794 116.5,-794 116.5,-797 113.5,-800 110.5,-800"/>
<text text-anchor="middle" x="82.5" y="-788.8" font-family="Helvetica,sans-Serif" font-size="9.00">navigation.js</text>
</a>
</g>
</g>
<!-- extension/intents/nicknames/nicknames.js -->
<g id="node9" class="node">
<title>extension/intents/nicknames/nicknames.js</title>
<g id="a_node9"><a xlink:href="extension/intents/nicknames/nicknames.js" xlink:title="nicknames.js">
<path fill="#ccffcc" stroke="black" d="M111.5,-740C111.5,-740 53.5,-740 53.5,-740 50.5,-740 47.5,-737 47.5,-734 47.5,-734 47.5,-728 47.5,-728 47.5,-725 50.5,-722 53.5,-722 53.5,-722 111.5,-722 111.5,-722 114.5,-722 117.5,-725 117.5,-728 117.5,-728 117.5,-734 117.5,-734 117.5,-737 114.5,-740 111.5,-740"/>
<text text-anchor="middle" x="82.5" y="-728.8" font-family="Helvetica,sans-Serif" font-size="9.00">nicknames.js</text>
</a>
</g>
</g>
<!-- extension/intents/notes/contentScript.js -->
<g id="node10" class="node">
<title>extension/intents/notes/contentScript.js</title>
<g id="a_node10"><a xlink:href="extension/intents/notes/contentScript.js" xlink:title="contentScript.js">
<path fill="#ccffcc" stroke="black" d="M116,-680C116,-680 49,-680 49,-680 46,-680 43,-677 43,-674 43,-674 43,-668 43,-668 43,-665 46,-662 49,-662 49,-662 116,-662 116,-662 119,-662 122,-665 122,-668 122,-668 122,-674 122,-674 122,-677 119,-680 116,-680"/>
<text text-anchor="middle" x="82.5" y="-668.8" font-family="Helvetica,sans-Serif" font-size="9.00">contentScript.js</text>
</a>
</g>
</g>
<!-- extension/intents/notes/notes.js -->
<g id="node11" class="node">
<title>extension/intents/notes/notes.js</title>
<g id="a_node11"><a xlink:href="extension/intents/notes/notes.js" xlink:title="notes.js">
<path fill="#ccffcc" stroke="black" d="M103.5,-650C103.5,-650 61.5,-650 61.5,-650 58.5,-650 55.5,-647 55.5,-644 55.5,-644 55.5,-638 55.5,-638 55.5,-635 58.5,-632 61.5,-632 61.5,-632 103.5,-632 103.5,-632 106.5,-632 109.5,-635 109.5,-638 109.5,-638 109.5,-644 109.5,-644 109.5,-647 106.5,-650 103.5,-650"/>
<text text-anchor="middle" x="82.5" y="-638.8" font-family="Helvetica,sans-Serif" font-size="9.00">notes.js</text>
</a>
</g>
</g>
<!-- extension/intents/print/print.js -->
<g id="node12" class="node">
<title>extension/intents/print/print.js</title>
<g id="a_node12"><a xlink:href="extension/intents/print/print.js" xlink:title="print.js">
<path fill="#ccffcc" stroke="black" d="M103.5,-590C103.5,-590 61.5,-590 61.5,-590 58.5,-590 55.5,-587 55.5,-584 55.5,-584 55.5,-578 55.5,-578 55.5,-575 58.5,-572 61.5,-572 61.5,-572 103.5,-572 103.5,-572 106.5,-572 109.5,-575 109.5,-578 109.5,-578 109.5,-584 109.5,-584 109.5,-587 106.5,-590 103.5,-590"/>
<text text-anchor="middle" x="82.5" y="-578.8" font-family="Helvetica,sans-Serif" font-size="9.00">print.js</text>
</a>
</g>
</g>
<!-- extension/intents/read/read.js -->
<g id="node13" class="node">
<title>extension/intents/read/read.js</title>
<g id="a_node13"><a xlink:href="extension/intents/read/read.js" xlink:title="read.js">
<path fill="#ccffcc" stroke="black" d="M103.5,-530C103.5,-530 61.5,-530 61.5,-530 58.5,-530 55.5,-527 55.5,-524 55.5,-524 55.5,-518 55.5,-518 55.5,-515 58.5,-512 61.5,-512 61.5,-512 103.5,-512 103.5,-512 106.5,-512 109.5,-515 109.5,-518 109.5,-518 109.5,-524 109.5,-524 109.5,-527 106.5,-530 103.5,-530"/>
<text text-anchor="middle" x="82.5" y="-518.8" font-family="Helvetica,sans-Serif" font-size="9.00">read.js</text>
</a>
</g>
</g>
<!-- extension/intents/read/startNarration.js -->
<g id="node14" class="node">
<title>extension/intents/read/startNarration.js</title>
<g id="a_node14"><a xlink:href="extension/intents/read/startNarration.js" xlink:title="startNarration.js">
<path fill="#ccffcc" stroke="black" d="M117,-500C117,-500 48,-500 48,-500 45,-500 42,-497 42,-494 42,-494 42,-488 42,-488 42,-485 45,-482 48,-482 48,-482 117,-482 117,-482 120,-482 123,-485 123,-488 123,-488 123,-494 123,-494 123,-497 120,-500 117,-500"/>
<text text-anchor="middle" x="82.5" y="-488.8" font-family="Helvetica,sans-Serif" font-size="9.00">startNarration.js</text>
</a>
</g>
</g>
<!-- extension/intents/saving/saveContentScript.js -->
<g id="node15" class="node">
<title>extension/intents/saving/saveContentScript.js</title>
<g id="a_node15"><a xlink:href="extension/intents/saving/saveContentScript.js" xlink:title="saveContentScript.js">
<path fill="#ccffcc" stroke="black" d="M127,-440C127,-440 38,-440 38,-440 35,-440 32,-437 32,-434 32,-434 32,-428 32,-428 32,-425 35,-422 38,-422 38,-422 127,-422 127,-422 130,-422 133,-425 133,-428 133,-428 133,-434 133,-434 133,-437 130,-440 127,-440"/>
<text text-anchor="middle" x="82.5" y="-428.8" font-family="Helvetica,sans-Serif" font-size="9.00">saveContentScript.js</text>
</a>
</g>
</g>
<!-- extension/intents/saving/saving.js -->
<g id="node16" class="node">
<title>extension/intents/saving/saving.js</title>
<g id="a_node16"><a xlink:href="extension/intents/saving/saving.js" xlink:title="saving.js">
<path fill="#ccffcc" stroke="black" d="M103.5,-410C103.5,-410 61.5,-410 61.5,-410 58.5,-410 55.5,-407 55.5,-404 55.5,-404 55.5,-398 55.5,-398 55.5,-395 58.5,-392 61.5,-392 61.5,-392 103.5,-392 103.5,-392 106.5,-392 109.5,-395 109.5,-398 109.5,-398 109.5,-404 109.5,-404 109.5,-407 106.5,-410 103.5,-410"/>
<text text-anchor="middle" x="82.5" y="-398.8" font-family="Helvetica,sans-Serif" font-size="9.00">saving.js</text>
</a>
</g>
</g>
<!-- extension/intents/scroll/scroll.js -->
<g id="node17" class="node">
<title>extension/intents/scroll/scroll.js</title>
<g id="a_node17"><a xlink:href="extension/intents/scroll/scroll.js" xlink:title="scroll.js">
<path fill="#ccffcc" stroke="black" d="M103.5,-350C103.5,-350 61.5,-350 61.5,-350 58.5,-350 55.5,-347 55.5,-344 55.5,-344 55.5,-338 55.5,-338 55.5,-335 58.5,-332 61.5,-332 61.5,-332 103.5,-332 103.5,-332 106.5,-332 109.5,-335 109.5,-338 109.5,-338 109.5,-344 109.5,-344 109.5,-347 106.5,-350 103.5,-350"/>
<text text-anchor="middle" x="82.5" y="-338.8" font-family="Helvetica,sans-Serif" font-size="9.00">scroll.js</text>
</a>
</g>
</g>
<!-- extension/intents/scroll/scrollHelper.js -->
<g id="node18" class="node">
<title>extension/intents/scroll/scrollHelper.js</title>
<g id="a_node18"><a xlink:href="extension/intents/scroll/scrollHelper.js" xlink:title="scrollHelper.js">
<path fill="#ccffcc" stroke="black" d="M113.5,-320C113.5,-320 51.5,-320 51.5,-320 48.5,-320 45.5,-317 45.5,-314 45.5,-314 45.5,-308 45.5,-308 45.5,-305 48.5,-302 51.5,-302 51.5,-302 113.5,-302 113.5,-302 116.5,-302 119.5,-305 119.5,-308 119.5,-308 119.5,-314 119.5,-314 119.5,-317 116.5,-320 113.5,-320"/>
<text text-anchor="middle" x="82.5" y="-308.8" font-family="Helvetica,sans-Serif" font-size="9.00">scrollHelper.js</text>
</a>
</g>
</g>
<!-- extension/intents/search/queryScript.js -->
<g id="node19" class="node">
<title>extension/intents/search/queryScript.js</title>
<g id="a_node19"><a xlink:href="extension/intents/search/queryScript.js" xlink:title="queryScript.js">
<path fill="#ccffcc" stroke="black" d="M112.5,-260C112.5,-260 52.5,-260 52.5,-260 49.5,-260 46.5,-257 46.5,-254 46.5,-254 46.5,-248 46.5,-248 46.5,-245 49.5,-242 52.5,-242 52.5,-242 112.5,-242 112.5,-242 115.5,-242 118.5,-245 118.5,-248 118.5,-248 118.5,-254 118.5,-254 118.5,-257 115.5,-260 112.5,-260"/>
<text text-anchor="middle" x="82.5" y="-248.8" font-family="Helvetica,sans-Serif" font-size="9.00">queryScript.js</text>
</a>
</g>
</g>
<!-- extension/intents/search/search.js -->
<g id="node20" class="node">
<title>extension/intents/search/search.js</title>
<g id="a_node20"><a xlink:href="extension/intents/search/search.js" xlink:title="search.js">
<path fill="#ccffcc" stroke="black" d="M103.5,-230C103.5,-230 61.5,-230 61.5,-230 58.5,-230 55.5,-227 55.5,-224 55.5,-224 55.5,-218 55.5,-218 55.5,-215 58.5,-212 61.5,-212 61.5,-212 103.5,-212 103.5,-212 106.5,-212 109.5,-215 109.5,-218 109.5,-218 109.5,-224 109.5,-224 109.5,-227 106.5,-230 103.5,-230"/>
<text text-anchor="middle" x="82.5" y="-218.8" font-family="Helvetica,sans-Serif" font-size="9.00">search.js</text>
</a>
</g>
</g>
<!-- extension/intents/self/self.js -->
<g id="node21" class="node">
<title>extension/intents/self/self.js</title>
<g id="a_node21"><a xlink:href="extension/intents/self/self.js" xlink:title="self.js">
<path fill="#ccffcc" stroke="black" d="M103.5,-170C103.5,-170 61.5,-170 61.5,-170 58.5,-170 55.5,-167 55.5,-164 55.5,-164 55.5,-158 55.5,-158 55.5,-155 58.5,-152 61.5,-152 61.5,-152 103.5,-152 103.5,-152 106.5,-152 109.5,-155 109.5,-158 109.5,-158 109.5,-164 109.5,-164 109.5,-167 106.5,-170 103.5,-170"/>
<text text-anchor="middle" x="82.5" y="-158.8" font-family="Helvetica,sans-Serif" font-size="9.00">self.js</text>
</a>
</g>
</g>
<!-- extension/intents/speech/speech.js -->
<g id="node22" class="node">
<title>extension/intents/speech/speech.js</title>
<g id="a_node22"><a xlink:href="extension/intents/speech/speech.js" xlink:title="speech.js">
<path fill="#ccffcc" stroke="black" d="M104.5,-110C104.5,-110 60.5,-110 60.5,-110 57.5,-110 54.5,-107 54.5,-104 54.5,-104 54.5,-98 54.5,-98 54.5,-95 57.5,-92 60.5,-92 60.5,-92 104.5,-92 104.5,-92 107.5,-92 110.5,-95 110.5,-98 110.5,-98 110.5,-104 110.5,-104 110.5,-107 107.5,-110 104.5,-110"/>
<text text-anchor="middle" x="82.5" y="-98.8" font-family="Helvetica,sans-Serif" font-size="9.00">speech.js</text>
</a>
</g>
</g>
<!-- extension/intents/tabs/tabs.js -->
<g id="node23" class="node">
<title>extension/intents/tabs/tabs.js</title>
<g id="a_node23"><a xlink:href="extension/intents/tabs/tabs.js" xlink:title="tabs.js">
<path fill="#ccffcc" stroke="black" d="M103.5,-50C103.5,-50 61.5,-50 61.5,-50 58.5,-50 55.5,-47 55.5,-44 55.5,-44 55.5,-38 55.5,-38 55.5,-35 58.5,-32 61.5,-32 61.5,-32 103.5,-32 103.5,-32 106.5,-32 109.5,-35 109.5,-38 109.5,-38 109.5,-44 109.5,-44 109.5,-47 106.5,-50 103.5,-50"/>
<text text-anchor="middle" x="82.5" y="-38.8" font-family="Helvetica,sans-Serif" font-size="9.00">tabs.js</text>
</a>
</g>
</g>
</g>
</svg>
